<?xml version="1.0" standalone="no"?>
<!DOCTYPE svg PUBLIC "-//W3C//DTD SVG 20010904//EN"
 "http://www.w3.org/TR/2001/REC-SVG-20010904/DTD/svg10.dtd">
<svg version="1.0" xmlns="http://www.w3.org/2000/svg"
 width="252.000000pt" height="300.000000pt" viewBox="0 0 252.000000 300.000000"
 preserveAspectRatio="xMidYMid meet">
<metadata>
Created by potrace 1.13, written by Peter Selinger 2001-2015
</metadata>
<g transform="translate(0.000000,300.000000) scale(0.100000,-0.100000)"
fill="#000000" stroke="none">
<path d="M1659 2942 c18 -48 18 -53 3 -47 -145 59 -252 85 -348 85 -54 0 -72
-13 -34 -25 48 -15 12 -25 -94 -25 -175 0 -314 -34 -357 -86 -13 -16 -12 -17
6 -10 11 4 36 9 55 12 19 2 26 1 15 -2 -37 -11 -190 -87 -180 -90 6 -1 23 -5
39 -9 23 -5 27 -8 15 -16 -7 -5 -22 -9 -32 -9 -27 0 -100 -38 -138 -71 -20
-18 -26 -28 -16 -25 60 19 65 13 13 -14 -83 -43 -148 -100 -180 -159 -15 -28
-24 -51 -21 -51 4 0 21 11 38 24 37 29 115 66 137 66 8 -1 -16 -17 -55 -38
-90 -48 -140 -86 -165 -127 -11 -18 -20 -36 -20 -39 0 -4 26 7 58 24 57 32 57
32 22 4 -55 -45 -100 -95 -131 -149 -42 -73 -36 -84 19 -31 69 67 106 90 55
34 -23 -25 -49 -60 -58 -78 l-16 -31 52 41 c101 79 107 69 14 -23 -94 -93
-145 -172 -145 -226 0 -21 9 -15 73 45 40 38 89 77 108 88 27 15 21 7 -25 -35
-33 -30 -77 -80 -98 -113 -40 -63 -78 -168 -78 -218 l0 -29 51 51 c70 70 143
127 202 156 61 31 70 26 20 -12 -21 -15 -72 -60 -113 -99 -84 -79 -174 -146
-267 -196 -35 -19 -63 -38 -63 -43 0 -13 157 0 237 19 38 9 98 32 136 50 37
18 67 31 67 28 0 -2 -18 -31 -41 -64 -55 -81 -96 -172 -110 -243 -21 -103 21
-244 100 -336 l30 -35 -6 57 c-11 106 26 274 80 365 24 41 30 38 17 -8 -6 -19
-17 -95 -25 -169 -21 -187 -57 -301 -123 -388 l-25 -33 29 11 c59 22 111 60
138 99 33 48 75 147 76 179 0 35 17 18 25 -25 14 -78 85 -204 152 -272 35 -35
66 -61 69 -58 3 3 -2 29 -10 58 -9 29 -16 72 -16 95 0 50 33 161 55 189 15 18
16 18 11 1 -3 -10 -11 -49 -17 -86 -23 -136 23 -266 137 -389 37 -40 69 -70
71 -67 2 2 -4 30 -13 62 -25 84 -22 223 5 294 23 61 40 86 123 185 32 38 67
87 78 109 26 53 26 22 0 -46 -23 -60 -71 -125 -126 -169 l-37 -29 28 0 c62 0
155 23 221 55 l69 33 -59 -54 c-52 -47 -112 -82 -266 -153 -21 -9 -9 -11 62
-7 l87 4 -30 -53 c-52 -93 -81 -191 -87 -296 -6 -121 13 -189 71 -255 46 -52
90 -77 165 -93 66 -14 182 -15 182 -1 0 6 -11 10 -25 10 -36 0 -144 37 -183
63 -39 26 -72 90 -72 139 0 51 36 160 83 253 l41 80 7 -43 c22 -121 121 -182
215 -134 45 23 85 62 49 48 -59 -25 -98 -19 -144 20 -55 46 -39 122 51 242 21
29 43 50 48 47 23 -14 202 98 292 183 86 81 129 156 152 264 l6 26 52 -20 c66
-25 178 -26 247 -3 31 10 69 34 98 62 27 25 39 41 28 37 -11 -3 -38 -13 -60
-22 -60 -23 -163 -19 -216 7 -24 11 -55 30 -69 42 l-25 20 25 -7 c39 -11 130
-8 143 5 8 8 8 11 -2 11 -30 0 -75 48 -151 161 -44 67 -80 123 -80 125 0 22
128 -91 183 -161 l40 -50 -8 35 c-18 84 -108 203 -210 279 l-30 22 43 -21 c24
-11 61 -37 82 -57 45 -40 51 -30 24 37 -21 52 -83 100 -174 135 -66 25 -69 27
-59 51 13 36 12 36 -16 8 -24 -24 -26 -24 -57 -8 l-32 16 30 13 c17 7 38 24
47 38 25 39 21 43 -9 8 -29 -35 -85 -51 -110 -30 -20 16 -64 91 -69 118 -3 16
1 21 16 21 14 0 19 -7 19 -29 0 -40 38 -83 74 -83 15 0 41 9 56 21 16 11 34
21 40 21 5 0 10 8 10 17 0 14 -3 14 -22 -4 -58 -52 -107 -53 -133 -3 -28 54
-25 55 103 55 64 0 126 2 137 5 16 4 22 -3 33 -35 7 -22 16 -70 19 -107 7 -86
14 -96 46 -75 36 23 82 102 113 192 33 96 45 281 24 372 -35 157 -132 263
-242 263 -45 0 -108 30 -108 51 0 25 -51 77 -127 129 -43 29 -95 69 -116 89
l-39 36 21 -53z m-164 -8 c33 -8 98 -32 143 -54 83 -39 112 -48 112 -32 0 5
-14 18 -31 31 -54 40 -24 33 42 -10 67 -44 125 -93 139 -120 8 -13 -1 -15 -69
-13 -70 2 -81 5 -105 28 -27 28 -100 66 -126 65 -8 0 3 -9 25 -21 44 -23 121
-88 105 -88 -6 0 -30 -18 -54 -40 -49 -45 -112 -76 -176 -86 -38 -6 -43 -5
-33 7 10 12 -1 14 -70 16 -45 1 -165 16 -267 33 -181 30 -345 41 -420 27 l-35
-7 35 16 c52 24 147 36 225 29 60 -6 226 -35 290 -51 17 -4 17 -3 4 5 -29 18
-265 61 -337 61 -54 0 -75 4 -93 19 l-24 19 47 21 c26 11 83 31 127 45 l81 26
95 -25 c97 -26 150 -31 159 -17 2 4 -10 6 -28 4 -18 -2 -69 7 -112 19 -43 13
-113 26 -154 29 l-75 5 40 14 c23 8 105 15 195 17 178 6 208 10 191 27 -6 6
-11 15 -11 20 0 11 81 1 165 -19z m419 -230 l48 -16 -49 -28 c-26 -15 -57 -38
-68 -50 -22 -25 -14 -21 53 24 87 60 198 43 271 -41 59 -66 83 -137 89 -264 5
-121 -7 -209 -44 -307 -24 -64 -90 -169 -100 -159 -3 3 -9 46 -15 98 -5 55
-16 105 -27 123 -23 39 -78 71 -150 85 -30 6 -74 22 -96 35 -111 65 -215 69
-360 14 -45 -17 -117 -43 -161 -59 -102 -36 -73 -38 37 -2 67 22 100 27 173
26 75 -1 83 1 51 8 -22 5 -42 12 -45 16 -9 9 108 -6 169 -22 30 -8 56 -12 58
-10 2 2 -22 11 -54 20 -113 31 -96 43 26 18 20 -4 22 -2 10 7 -29 22 32 -1 80
-31 26 -16 62 -32 81 -35 50 -8 129 -37 129 -46 0 -7 -17 -12 -73 -21 -16 -3
-84 2 -150 9 -167 19 -259 17 -415 -6 -94 -13 -146 -17 -178 -11 -34 6 -43 6
-35 -2 7 -7 51 -14 99 -18 l87 -6 -88 -1 c-63 -2 -97 2 -119 14 -18 9 -27 11
-23 4 14 -23 75 -40 147 -40 71 -1 72 -1 43 -15 -27 -13 -27 -14 -5 -10 14 2
47 7 73 10 27 4 67 13 90 21 l42 14 -30 -27 c-16 -15 -23 -24 -15 -21 49 18
61 16 25 -3 -46 -25 -89 -38 -271 -79 -155 -35 -282 -73 -309 -94 -14 -11 -3
-9 35 5 52 20 226 69 243 69 5 0 -25 -23 -67 -50 -132 -89 -197 -191 -195
-303 l1 -52 9 58 c16 110 73 195 184 276 87 64 198 119 180 90 -4 -5 0 -9 6
-9 29 0 -78 -90 -146 -124 -131 -65 -216 -169 -213 -261 l1 -40 6 45 c9 60 51
130 106 176 45 36 73 41 43 7 -18 -21 -61 -103 -56 -108 2 -2 17 22 33 53 31
59 94 132 114 132 8 0 4 -12 -10 -31 -32 -45 -69 -139 -68 -174 0 -23 4 -17
15 24 22 83 70 157 163 254 104 108 138 116 41 9 -116 -129 -112 -135 9 -12
62 63 84 83 48 43 -95 -104 -164 -198 -199 -273 -27 -55 -32 -78 -34 -150 l-2
-85 7 85 c8 87 29 142 89 232 29 45 41 44 17 -2 -9 -18 -15 -34 -12 -36 2 -3
14 18 26 46 12 27 23 50 24 50 2 0 1 -41 -1 -90 -5 -103 11 -161 55 -201 l26
-24 -25 35 c-50 69 -61 158 -34 274 13 54 21 66 106 150 83 82 90 87 69 49
-12 -24 -28 -43 -35 -43 -17 0 -72 -91 -100 -167 -41 -108 -27 -225 31 -273
10 -8 6 3 -9 24 -14 21 -28 54 -32 73 -8 44 0 119 19 164 l14 34 17 -73 c24
-97 30 -87 8 16 -18 89 -14 106 39 172 l20 25 -6 -25 c-4 -17 1 -12 17 15 l22
40 7 -55 c6 -58 45 -146 75 -171 11 -9 7 1 -9 26 -37 57 -57 119 -57 180 0 42
6 60 30 93 17 23 32 42 35 42 2 0 -5 -19 -15 -42 -27 -60 -26 -94 1 -43 25 48
48 73 25 28 -29 -57 -21 -93 39 -183 30 -45 55 -79 55 -74 0 5 -21 40 -45 78
-52 79 -57 123 -25 186 27 53 40 59 40 17 0 -42 41 -117 81 -152 44 -36 56
-31 14 7 -20 17 -45 49 -56 71 -17 33 -19 44 -9 68 16 38 23 37 39 -8 7 -20
31 -55 53 -79 33 -35 60 -51 156 -88 125 -49 185 -83 203 -117 6 -12 7 -19 2
-17 -4 2 -42 20 -83 41 -41 20 -97 39 -125 43 l-50 5 63 -33 c99 -53 190 -126
238 -190 57 -78 56 -94 -1 -30 -63 70 -138 117 -242 150 -49 16 -104 37 -123
46 -31 15 -33 15 -15 1 11 -9 41 -27 66 -40 25 -13 63 -45 85 -71 70 -85 66
-81 55 -59 -5 11 -23 37 -40 59 -38 47 -38 50 -3 32 37 -19 60 -46 132 -156
34 -52 80 -114 103 -137 l40 -42 -39 6 c-54 8 -115 31 -136 49 -9 9 -48 66
-85 126 -107 173 -131 188 -37 23 94 -163 123 -201 196 -257 80 -60 161 -70
283 -34 11 4 -5 -6 -35 -21 -48 -24 -66 -28 -145 -28 -99 0 -145 16 -238 78
-37 25 -47 37 -43 53 10 39 -14 139 -49 209 -19 39 -78 122 -131 185 -108 130
-134 173 -144 245 l-8 50 -1 -49 c-1 -69 22 -111 134 -245 110 -132 135 -172
165 -261 18 -53 21 -79 17 -140 -4 -41 -8 -84 -10 -95 -2 -11 1 -5 6 13 11 34
24 41 33 18 8 -21 -21 -126 -51 -188 -14 -29 -19 -44 -10 -33 27 32 52 87 70
148 20 71 41 71 39 1 -2 -91 -80 -209 -201 -305 -41 -33 -88 -66 -104 -74 -27
-15 -26 -11 22 60 67 98 95 183 111 331 18 170 15 233 -18 342 -3 9 2 6 10 -8
23 -38 53 -137 60 -205 6 -54 -4 -173 -20 -221 -5 -17 -4 -17 5 -3 24 37 34
168 21 257 -13 91 -70 221 -111 258 -22 19 -22 19 -14 -1 40 -99 56 -158 61
-219 10 -121 -33 -255 -114 -355 -44 -54 -113 -105 -122 -91 -4 7 -11 6 -20
-5 -23 -28 -2 -28 55 0 37 18 70 44 96 77 21 27 39 43 39 35 0 -33 -66 -141
-164 -267 -128 -164 -158 -216 -158 -276 -1 -56 35 -98 102 -119 l45 -14 -47
0 c-26 -1 -59 4 -73 11 -51 23 -85 116 -71 191 3 19 39 85 80 148 84 132 102
164 87 155 -6 -4 -46 -60 -89 -124 -205 -307 -282 -501 -241 -609 16 -42 58
-83 114 -109 46 -21 47 -23 15 -17 -99 16 -193 88 -221 169 -34 99 -5 282 65
422 39 78 61 104 98 120 l28 12 -30 -53 c-26 -46 -80 -177 -80 -194 0 -3 28
50 63 118 42 85 74 135 101 159 175 155 231 234 262 367 19 79 14 207 -11 288
-12 42 -14 44 -9 13 34 -243 20 -342 -67 -468 -43 -61 -102 -114 -197 -179
-72 -49 -110 -66 -167 -75 -38 -6 -36 -4 30 31 82 45 194 153 244 236 74 125
102 226 100 366 -2 140 -14 155 -15 20 -1 -104 -6 -137 -28 -204 -14 -44 -41
-103 -60 -130 -57 -85 -173 -163 -270 -181 l-39 -7 40 54 c93 124 107 200 78
404 -8 55 -15 143 -16 195 -1 77 -3 89 -10 65 -6 -18 -7 -80 -2 -160 16 -265
8 -297 -117 -444 -121 -142 -161 -253 -140 -385 6 -36 13 -73 16 -83 8 -27
-59 53 -95 111 -16 28 -38 80 -47 115 -28 111 -4 216 103 445 60 129 65 145
69 220 l4 81 -19 -87 c-23 -106 -49 -164 -131 -293 -104 -164 -114 -193 -115
-312 l0 -102 -32 31 c-42 40 -107 166 -127 244 -34 132 -11 262 76 423 48 90
49 93 21 73 -51 -36 -81 -109 -129 -313 -48 -209 -89 -312 -144 -364 l-32 -30
25 51 c29 57 50 154 67 299 30 266 81 356 273 486 101 68 134 95 72 59 -214
-126 -337 -245 -418 -408 -38 -77 -42 -92 -45 -178 -5 -108 -16 -112 -52 -18
-60 160 -33 257 143 525 81 123 197 245 281 294 53 31 62 44 14 19 -67 -34
-126 -81 -240 -190 -153 -146 -235 -187 -433 -218 l-40 -7 60 35 c69 40 154
107 281 220 157 139 279 206 148 80 -66 -63 -67 -64 -14 -22 95 74 156 108
232 130 83 23 192 70 202 87 4 6 -8 3 -26 -8 -48 -28 -146 -57 -288 -87 -189
-39 -298 -89 -406 -188 -30 -26 -54 -45 -54 -42 0 3 10 31 21 63 44 117 103
187 228 272 83 57 118 67 309 96 91 14 168 27 171 31 7 6 -47 0 -244 -27 -206
-29 -303 -65 -407 -151 -27 -22 -48 -36 -48 -33 0 33 182 221 263 272 48 30
162 59 282 72 l90 10 -125 -4 c-155 -5 -257 -35 -370 -106 l-35 -23 25 28 c36
39 135 104 178 116 21 5 73 16 117 25 l80 15 -75 -6 c-116 -8 -223 -41 -296
-90 -35 -23 -64 -39 -64 -34 0 13 97 98 156 136 72 46 130 64 207 64 55 0 192
19 185 25 -2 1 -73 -1 -158 -5 -136 -6 -163 -10 -220 -34 -94 -39 -98 -40 -70
-17 45 36 212 122 268 136 30 8 57 17 60 20 3 3 -24 5 -59 5 -70 0 -171 -22
-206 -46 -39 -25 -25 1 23 46 42 39 155 99 247 131 29 10 44 11 70 1 18 -7 43
-12 56 -12 45 0 9 -19 -62 -31 -41 -7 -61 -14 -47 -16 14 -2 40 -6 59 -9 l34
-6 -43 -26 c-56 -32 -39 -39 31 -12 73 27 91 25 46 -6 -49 -33 -100 -54 -157
-65 -40 -7 -37 -8 21 -4 36 2 90 13 120 24 67 26 66 26 43 0 l-19 -22 43 22
c24 12 45 21 47 19 1 -2 12 -23 24 -46 28 -56 36 -49 15 12 -16 46 -15 109 1
148 5 12 0 18 -17 21 -20 4 -19 4 6 6 25 1 28 -2 22 -21 -21 -73 -19 -117 7
-170 32 -65 80 -99 147 -106 97 -9 186 65 198 163 5 49 3 48 97 60 28 4 70 15
94 26 l43 19 -17 -28 c-35 -54 -101 -136 -139 -174 l-40 -38 31 9 c17 5 40 14
52 21 13 6 25 9 28 7 8 -9 -80 -68 -109 -74 -48 -9 -32 -26 18 -19 25 3 43 2
40 -3 -10 -16 -94 -33 -150 -29 -45 2 -53 1 -43 -10 7 -7 33 -16 58 -20 l44
-8 -53 -12 c-73 -16 -147 -49 -169 -75 -18 -22 -18 -22 2 -6 42 35 89 52 228
83 39 9 33 26 -10 27 -38 1 -38 1 8 9 52 9 99 31 120 56 12 15 11 16 -21 9
l-35 -7 48 42 c26 23 55 56 64 73 l16 31 -24 -17 c-13 -9 -33 -22 -44 -28 -18
-11 -19 -11 -5 8 8 11 38 50 65 88 28 37 64 86 80 109 55 74 137 94 239 60z
m-780 -75 l43 -11 -30 -29 c-25 -26 -29 -35 -24 -67 13 -80 101 -109 158 -53
33 33 38 74 13 109 -14 20 -14 22 3 22 10 0 35 -3 56 -6 34 -6 35 -8 20 -20
-11 -8 -13 -13 -5 -14 19 0 14 -49 -9 -97 -24 -51 -88 -93 -139 -93 -115 0
-201 128 -157 233 18 42 14 41 71 26z"/>
<path d="M1530 2570 c-30 -11 -67 -19 -82 -19 -23 -1 -28 -6 -34 -38 -3 -21
-17 -57 -29 -80 -20 -36 -21 -43 -8 -43 34 0 103 52 150 112 48 62 67 89 61
87 -2 -1 -28 -9 -58 -19z"/>
</g>
</svg>
